# xmcd
#
# Track frame offsets:
#	150
#	16488
#	34928
#	50698
#	75153
#	92313
#	108960
#	125020
#	156848
#	171830
#	193198
#
# Disc length: 2851 seconds
#
# Revision: 1
# Processed by: cddbd v1.5.2PL0 Copyright (c) Steve Scherf et al.
# Submitted via: audiograbber 1.83.01
#
DISCID=840b210b
DTITLE=Various Artist - Mixx-It Country Kicks CD1
DYEAR=1998
DGENRE=Country
TTITLE0=Sammy Kershaw - She Don't Know She's Beautiful
TTITLE1=Aaron Tippin - Workin' Man's Ph D
TTITLE2=John Anderson - Money In The Bank
TTITLE3=Confederate Railroad - Trashy Women
TTITLE4=Carlene Carter - Every Little Thing
TTITLE5=Shenandoah - Janie Barker's Love Slave
TTITLE6=Pam Tillis - Cleopatra, Queen Of Denial
TTITLE7=Brooks and Dunn - Boot Scootin' Boogie
TTITLE8=Mark Chestnut - It Sure Is Monday
TTITLE9=Mary Chapin-Carpenter - Down At The Twist and Shout
TTITLE10=Johnny Lee - Cherokee Fiddle
EXTD=
EXTT0=
EXTT1=
EXTT2=
EXTT3=
EXTT4=
EXTT5=
EXTT6=
EXTT7=
EXTT8=
EXTT9=
EXTT10=
PLAYORDER=
